<svg width="722" height="232" viewBox="0 0 722 232" fill="none" xmlns="http://www.w3.org/2000/svg">
<g clip-path="url(#clip0_2145_1422)">
<path d="M122.73 230.47C122.21 230.47 121.68 230.44 121.16 230.37C83.1199 225.71 50.4299 198.69 35.8399 159.84C30.7899 146.41 27.5599 131.22 26.2099 114.7C25.9099 111.01 25.8599 107.36 25.8199 103.83C25.6799 92.7696 25.3499 85.7796 20.5799 81.5596C18.2099 79.4596 16.4599 78.4396 15.4099 77.9396C11.9299 76.2996 9.35994 73.1896 8.39994 69.4596C7.43994 65.7296 8.19994 61.7696 10.4599 58.6496C19.9299 45.6196 29.0599 30.7096 30.5099 25.9696C30.5499 21.9396 32.4799 18.1196 35.7799 15.6996C39.5499 12.9296 44.5299 12.4196 48.7899 14.3696C48.8699 14.3996 60.3099 19.4896 74.1899 20.5196C90.0399 21.6896 101.8 17.3696 110.09 7.3296C111.58 4.2196 114.29 1.75962 117.71 0.629617C122.99 -1.11038 128.79 0.739625 132.11 5.19962C140.44 16.4096 152.6 21.2596 169.29 20.0296C183.17 19.0096 194.61 13.9196 194.73 13.8696C198.99 11.9596 203.97 12.4796 207.72 15.2496C211 17.6696 212.93 21.4796 212.98 25.4896C214.43 30.2396 223.56 45.1496 233.03 58.1796C235.3 61.2896 236.05 65.2596 235.1 68.9896C234.14 72.7196 231.57 75.8296 228.09 77.4696C227.04 77.9596 225.29 78.9896 222.93 81.0896C218.16 85.3096 217.83 92.2996 217.69 103.36C217.64 106.89 217.6 110.54 217.3 114.23C215.96 130.75 212.72 145.94 207.68 159.37C194.02 195.73 164.51 223.15 129.44 229.99C125.58 230.51 124.98 230.48 122.75 230.48L122.73 230.47ZM38.7699 63.2096C51.2899 75.1196 51.4899 90.8196 51.6499 103.51C51.6899 106.75 51.7299 109.81 51.9599 112.62C53.1099 126.75 55.8199 139.58 60.0199 150.76C70.6799 179.14 93.5099 199.24 120.23 204.11C120.44 204.07 120.65 204.03 120.86 204C148.55 199.96 172.55 179.37 183.48 150.27C187.68 139.09 190.39 126.25 191.54 112.13C191.77 109.32 191.81 106.26 191.85 103.02C192.01 90.3496 192.22 74.6796 204.67 62.7796C198.73 54.0396 194.76 47.2996 192.13 42.0596C186.57 43.6096 179.65 45.1096 172.08 45.7396C152.15 47.3996 135.13 42.6296 122.05 31.8796C108.89 42.9696 91.6599 47.9196 71.4299 46.2296C63.8499 45.5996 56.9099 44.0996 51.3499 42.5496C49.4299 46.2696 46.8599 50.6996 43.4499 56.0696C41.8599 58.5796 40.2599 61.0096 38.7799 63.2196L38.7699 63.2096ZM30.6099 27.7196C30.6099 27.7196 30.6099 27.7196 30.6099 27.7296C30.6099 27.7296 30.6099 27.7296 30.6099 27.7196Z" fill="white"/>
<g opacity="0.1">
<path d="M233.04 58.1903C223.57 45.1702 214.44 30.2502 212.99 25.5002C212.94 21.4902 211.01 17.6903 207.73 15.2603C203.97 12.4903 199 11.9603 194.74 13.8803C194.63 13.9303 183.18 19.0203 169.3 20.0403C152.61 21.2703 140.45 16.4202 132.12 5.21024C129.55 1.75024 125.48 -0.119742 121.32 0.010258V32.4503C121.56 32.2503 121.81 32.0702 122.04 31.8702C135.12 42.6202 152.14 47.3903 172.07 45.7303C179.64 45.1003 186.57 43.6102 192.12 42.0502C194.76 47.2902 198.72 54.0302 204.66 62.7702C192.2 74.6702 192 90.3403 191.84 103.01C191.8 106.25 191.76 109.31 191.53 112.12C190.38 126.25 187.67 139.08 183.47 150.26C172.6 179.2 148.81 199.71 121.31 203.92V230.38C121.78 230.43 122.25 230.47 122.72 230.47C124.95 230.47 127.1 230.44 129.64 230.04C164.71 223.2 193.99 195.72 207.65 159.36C212.69 145.93 215.93 130.74 217.27 114.22C217.57 110.53 217.62 106.88 217.66 103.35C217.8 92.2902 218.13 85.3103 222.9 81.0803C225.26 78.9903 227.01 77.9603 228.06 77.4603C231.54 75.8203 234.12 72.7103 235.07 68.9803C236.03 65.2503 235.27 61.2903 233 58.1703L233.04 58.1903Z" fill="#006FEC"/>
</g>
<path d="M121.75 13.4102C94.8302 49.6302 43.4302 26.1402 43.4302 26.1402C44.4102 33.9702 20.9102 66.2802 20.9102 66.2802C23.8102 67.6402 26.6302 69.6902 29.1402 71.9102C41.1202 82.5102 37.9102 99.1701 39.0902 113.67C40.2402 127.84 42.9202 141.97 47.9302 155.31C60.1102 187.73 85.6702 212.62 120.78 216.91L121.75 13.4102Z" fill="#2D52D5"/>
<path d="M121.75 12.9199C148.67 49.1399 200.07 25.6499 200.07 25.6499C199.09 33.4799 222.59 65.7899 222.59 65.7899C219.69 67.1499 216.87 69.1999 214.36 71.4199C202.38 82.0199 205.59 98.6799 204.41 113.18C203.26 127.35 200.58 141.48 195.57 154.82C183.39 187.24 155.88 212.77 120.77 217.07L121.75 12.9199Z" fill="#5E7FDD"/>
<path d="M177.36 135.25C175.8 135.31 174.41 136.34 173.79 137.76C169.03 137.41 164.4 135.7 160.55 132.88C161.94 129.15 162.81 125.17 163.08 121.02C164.1 120.84 165.13 120.75 166.16 120.76C166.83 120.76 167.49 120.81 168.16 120.9C168.76 120.99 169.38 121.09 169.93 121.38C170.48 121.67 170.84 122.11 171.08 122.67C171.31 123.21 171.47 123.79 171.81 124.27C172.44 125.15 173.67 125.42 174.68 125.11C175.79 124.76 176.58 123.77 176.96 122.7C177.41 121.42 177.35 119.98 177.14 118.67C176.97 117.63 176.63 116.52 175.84 115.77C175.02 114.98 173.82 114.76 172.76 115.17C171.77 115.56 171.1 116.53 171.02 117.58C168.46 118.26 165.77 118.34 163.17 117.83C163.13 113.52 162.44 109.37 161.18 105.47C162.87 104.04 164.75 102.85 166.76 101.94C167.65 101.54 168.56 101.19 169.49 100.9C170.34 100.63 171.24 100.4 172.14 100.43C173.05 100.47 173.79 100.83 174.46 101.42C175.1 102 175.66 102.67 176.42 103.1C177.81 103.88 179.61 103.48 180.75 102.44C182.01 101.29 182.45 99.4904 182.29 97.8404C182.1 95.8704 181.12 93.9904 180.03 92.3604C179.17 91.0804 178.02 89.8204 176.51 89.3104C174.94 88.7804 173.2 89.2204 172.05 90.4104C170.97 91.5404 170.7 93.2504 171.22 94.7004C167.77 97.5904 163.56 99.5304 159.13 100.28C157.34 96.5304 155.01 93.0804 152.24 90.0504C153.26 87.4304 154.75 84.9904 156.62 82.8704C157.27 82.1404 157.96 81.4504 158.69 80.8104C159.37 80.2204 160.09 79.6404 160.93 79.3004C161.77 78.9604 162.59 78.9904 163.45 79.2604C164.27 79.5304 165.06 79.9104 165.92 79.9904C167.51 80.1304 168.99 79.0404 169.6 77.6204C170.28 76.0604 169.95 74.2304 169.13 72.7904C168.15 71.0704 166.49 69.7504 164.84 68.7204C163.53 67.9004 161.97 67.2204 160.39 67.3704C158.73 67.5204 157.33 68.6304 156.77 70.1904C156.24 71.6704 156.68 73.3304 157.76 74.4404C155.62 78.8204 152.22 82.5404 148.06 85.0704C147.82 85.2104 147.58 85.3504 147.35 85.4904C145.59 84.0804 143.71 82.8204 141.74 81.7104C140.53 81.0304 139.28 80.4104 137.99 79.8504C138.15 78.2504 138.54 76.6704 139.15 75.1904C139.41 74.5804 139.7 73.9804 140.02 73.4004C140.32 72.8704 140.66 72.3304 141.13 71.9304C141.46 71.6404 141.83 71.4804 142.23 71.4004C142.4 71.3604 142.57 71.3504 142.74 71.3404C143.33 71.3304 143.92 71.4004 144.5 71.2604C145.56 71.0004 146.27 69.9604 146.35 68.9104C146.44 67.7504 145.82 66.6504 144.97 65.9004C144.17 65.2004 143.16 64.7504 142.13 64.4504C141.85 64.3604 141.57 64.2904 141.29 64.2304C140.27 64.0004 139.11 63.9104 138.12 64.3504C137.09 64.8204 136.43 65.8504 136.41 66.9804C136.41 68.0504 137.06 69.0304 138 69.5004C137.6 72.7604 136.27 75.8804 134.2 78.4104C130.97 77.3604 127.56 76.7004 124.03 76.4704C122.77 73.6904 122.04 70.6804 121.91 67.6204C121.87 66.6504 121.88 65.6704 121.96 64.7004C122.02 63.8104 122.14 62.8804 122.51 62.0604C122.88 61.2304 123.49 60.6804 124.3 60.2804C125.07 59.9004 125.9 59.6304 126.58 59.0804C127.82 58.0904 128.12 56.2704 127.58 54.8204C126.98 53.2204 125.47 52.1404 123.88 51.6704C121.98 51.1204 119.87 51.3204 117.96 51.7304C116.45 52.0604 114.85 52.6504 113.82 53.8604C112.73 55.1204 112.49 56.9004 113.19 58.4104C113.83 59.8404 115.31 60.7304 116.86 60.7704C118.37 65.4004 118.51 70.4404 117.29 75.1604C117.16 75.6404 117.02 76.1304 116.86 76.6004C114.55 76.8504 112.29 77.2804 110.11 77.8804C108.28 75.4404 107.09 72.5304 106.72 69.4904C107.66 69.0104 108.32 68.0304 108.31 66.9704C108.3 65.8404 107.64 64.8104 106.6 64.3404C105.61 63.8904 104.46 63.9904 103.43 64.2204C102.13 64.5204 100.76 65.0004 99.7602 65.8904C98.9102 66.6404 98.2802 67.7404 98.3802 68.9004C98.4602 69.9504 99.1702 70.9904 100.22 71.2504C100.8 71.3904 101.39 71.3104 101.98 71.3304C102.59 71.3404 103.13 71.5104 103.6 71.9104C104.06 72.3104 104.4 72.8504 104.7 73.3804C105.02 73.9604 105.32 74.5604 105.57 75.1704C106.08 76.4004 106.43 77.6904 106.63 79.0104C102.86 80.4204 99.3602 82.3704 96.1902 84.7404C92.2502 82.2204 89.0102 78.6304 86.9502 74.4204C88.0302 73.3104 88.4702 71.6404 87.9402 70.1704C87.3802 68.6004 85.9702 67.4904 84.3202 67.3404C82.7402 67.2004 81.1802 67.8804 79.8702 68.6904C78.2102 69.7204 76.5502 71.0404 75.5802 72.7704C74.7602 74.2104 74.4302 76.0404 75.1102 77.6004C75.7302 79.0204 77.2102 80.1104 78.8002 79.9604C79.6702 79.8804 80.4502 79.4904 81.2702 79.2304C82.1202 78.9604 82.9502 78.9304 83.7902 79.2604C84.6302 79.6004 85.3502 80.1804 86.0302 80.7704C86.7602 81.4104 87.4502 82.1104 88.1002 82.8304C89.6102 84.5404 90.8402 86.4704 91.8102 88.5304C88.6202 91.7004 85.9202 95.3604 83.8702 99.4204C81.1802 98.5904 78.6502 97.2404 76.4902 95.4304C76.9302 94.2204 76.7002 92.8104 75.8002 91.8704C74.8502 90.8704 73.4002 90.5104 72.0902 90.9504C70.8402 91.3804 69.8902 92.4204 69.1702 93.4804C68.2602 94.8304 67.4502 96.3904 67.2902 98.0304C67.1602 99.4004 67.5202 100.9 68.5702 101.86C69.5202 102.73 71.0102 103.06 72.1702 102.41C72.8002 102.05 73.2602 101.5 73.8002 101.02C74.3602 100.52 74.9702 100.22 75.7302 100.19C76.4802 100.16 77.2302 100.36 77.9402 100.58C78.7102 100.82 79.4702 101.11 80.2102 101.45C80.9802 101.8 81.7202 102.2 82.4402 102.64C80.5302 107.4 79.4602 112.59 79.4402 118.03C77.5202 118.16 75.5902 118.03 73.7302 117.53C73.6402 116.48 72.9802 115.51 71.9802 115.12C70.9202 114.71 69.7202 114.94 68.9002 115.72C68.1202 116.47 67.7702 117.58 67.6102 118.62C67.4002 119.94 67.3402 121.38 67.7902 122.65C68.1702 123.72 68.9602 124.71 70.0702 125.06C71.0802 125.38 72.3002 125.1 72.9402 124.22C73.2902 123.74 73.4402 123.16 73.6702 122.62C73.9102 122.06 74.2702 121.62 74.8202 121.33C75.3702 121.05 75.9902 120.94 76.6002 120.85C77.2602 120.76 77.9202 120.71 78.5902 120.71C78.9002 120.71 79.2102 120.74 79.5302 120.76C79.8102 125.4 80.8402 129.84 82.5102 133.96C79.0302 136.1 75.0502 137.41 70.9702 137.71C70.3402 136.3 68.9602 135.27 67.3902 135.21C65.7302 135.15 64.1702 136.04 63.4202 137.52C62.7002 138.93 62.7502 140.63 63.0202 142.16C63.3602 144.08 63.9702 146.11 65.2002 147.66C66.2402 148.96 67.8102 149.95 69.5102 149.9C71.0602 149.86 72.6202 148.89 73.0802 147.36C73.3302 146.52 73.2602 145.65 73.3202 144.8C73.3802 143.9 73.6602 143.13 74.2902 142.47C74.9102 141.82 75.7302 141.36 76.5202 140.96C77.3902 140.52 78.2902 140.14 79.2102 139.81C80.9902 139.17 82.8402 138.77 84.7102 138.57C86.4302 141.67 88.5402 144.52 90.9602 147.08C89.6302 149.51 87.7702 151.64 85.4702 153.2C84.6202 152.58 83.4502 152.44 82.5002 152.94C81.5002 153.47 80.8802 154.53 80.9402 155.66C80.9902 156.74 81.6002 157.73 82.2802 158.54C83.1402 159.56 84.1902 160.55 85.4502 161.05C86.5002 161.46 87.7702 161.51 88.7602 160.9C89.6602 160.35 90.2602 159.24 90.0002 158.18C89.8602 157.6 89.5302 157.11 89.2702 156.58C89.0002 156.03 88.9002 155.47 89.0502 154.87C89.2002 154.27 89.5202 153.73 89.8502 153.21C90.2102 152.65 90.6102 152.12 91.0402 151.61C91.7402 150.79 92.5302 150.07 93.3702 149.4C96.4202 152.14 99.8602 154.46 103.62 156.21C103.07 159.91 101.6 163.47 99.3602 166.48C98.0502 166.08 96.5602 166.41 95.6102 167.42C94.6002 168.49 94.3002 170.06 94.8502 171.43C95.3802 172.73 96.5402 173.69 97.7202 174.39C99.2002 175.28 100.92 176.05 102.68 176.12C104.15 176.18 105.73 175.7 106.69 174.53C107.55 173.46 107.82 171.85 107.06 170.66C106.64 170.01 106.02 169.54 105.48 169.01C104.92 168.44 104.56 167.81 104.48 167C104.41 166.21 104.57 165.39 104.77 164.62C104.98 163.78 105.25 162.96 105.56 162.16C106.14 160.65 106.9 159.23 107.81 157.89C111.22 159.06 114.84 159.79 118.6 160.02C119.16 162.13 119.44 164.32 119.41 166.52C119.41 167.49 119.33 168.47 119.19 169.43C119.07 170.32 118.9 171.23 118.48 172.04C118.07 172.84 117.42 173.36 116.59 173.71C115.8 174.05 114.95 174.26 114.25 174.77C112.95 175.7 112.54 177.49 113 178.97C113.5 180.6 114.95 181.77 116.52 182.32C118.39 182.99 120.5 182.9 122.44 182.6C123.97 182.36 125.59 181.86 126.69 180.72C127.84 179.52 128.19 177.76 127.58 176.21C127.02 174.75 125.6 173.77 124.06 173.64C122.88 169.18 122.95 164.44 124.23 160.02C128.81 159.7 133.19 158.65 137.24 156.98C137.47 157.41 137.67 157.86 137.85 158.32C138.04 158.82 138.2 159.32 138.33 159.84C138.45 160.32 138.55 160.81 138.51 161.3C138.46 161.8 138.24 162.19 137.89 162.54C137.56 162.87 137.18 163.15 136.92 163.56C136.45 164.29 136.62 165.29 137.15 165.94C137.74 166.66 138.71 166.96 139.61 166.92C140.7 166.88 141.75 166.4 142.66 165.85C143.39 165.41 144.11 164.83 144.43 164.02C144.78 163.18 144.59 162.22 143.96 161.56C143.38 160.93 142.45 160.73 141.65 160.98C140.55 159.52 139.76 157.84 139.31 156.07C143.01 154.3 146.42 152.01 149.43 149.28C151.58 150.54 153.52 152.16 155.14 154.06C155.72 154.74 156.26 155.46 156.75 156.21C157.2 156.9 157.64 157.64 157.84 158.44C158.03 159.25 157.9 160 157.54 160.74C157.19 161.45 156.74 162.12 156.55 162.89C156.21 164.32 157.01 165.81 158.23 166.56C159.56 167.38 161.27 167.32 162.69 166.76C164.39 166.09 165.8 164.76 166.96 163.38C167.88 162.28 168.7 160.96 168.77 159.5C168.85 157.97 168.02 156.55 166.67 155.83C165.4 155.16 163.82 155.35 162.67 156.18C158.97 153.67 156.02 150.08 154.25 145.96C154.07 145.54 153.9 145.12 153.75 144.7C155.36 142.75 156.78 140.64 158.02 138.4C160.58 138.45 163.14 138.92 165.56 139.78C166.47 140.11 167.38 140.49 168.25 140.93C169.05 141.33 169.86 141.79 170.48 142.44C171.11 143.1 171.38 143.87 171.45 144.77C171.52 145.63 171.45 146.5 171.7 147.33C172.15 148.86 173.72 149.82 175.27 149.87C176.98 149.91 178.55 148.93 179.59 147.63C180.82 146.08 181.43 144.05 181.77 142.13C182.04 140.61 182.09 138.91 181.37 137.5C180.61 136.02 179.06 135.12 177.39 135.19L177.36 135.25Z" fill="white"/>
<path d="M177.36 135.25C175.8 135.31 174.41 136.34 173.79 137.76C169.03 137.41 164.4 135.7 160.56 132.88C161.95 129.15 162.82 125.17 163.09 121.02C164.11 120.84 165.14 120.75 166.17 120.76C166.84 120.76 167.5 120.81 168.17 120.9C168.77 120.99 169.39 121.09 169.94 121.38C170.49 121.67 170.85 122.11 171.09 122.67C171.32 123.21 171.48 123.79 171.82 124.27C172.45 125.15 173.68 125.42 174.69 125.11C175.8 124.76 176.59 123.77 176.97 122.7C177.42 121.42 177.36 119.98 177.15 118.67C176.98 117.63 176.64 116.52 175.85 115.77C175.03 114.98 173.83 114.76 172.77 115.17C171.78 115.56 171.11 116.53 171.03 117.58C168.47 118.26 165.78 118.34 163.18 117.83C163.14 113.52 162.45 109.37 161.19 105.47C162.88 104.04 164.76 102.85 166.77 101.94C167.66 101.54 168.57 101.19 169.5 100.9C170.35 100.63 171.25 100.4 172.15 100.43C173.06 100.47 173.8 100.83 174.47 101.42C175.11 102 175.67 102.67 176.43 103.1C177.82 103.88 179.62 103.48 180.76 102.44C182.02 101.29 182.46 99.4898 182.3 97.8398C182.11 95.8698 181.13 93.9898 180.04 92.3598C179.18 91.0798 178.03 89.8198 176.52 89.3098C174.95 88.7798 173.21 89.2198 172.06 90.4098C170.98 91.5398 170.71 93.2498 171.23 94.6998C167.78 97.5898 163.57 99.5298 159.14 100.28C157.95 97.7798 156.5 95.4398 154.86 93.2398C155.02 93.8198 155.17 94.3898 155.3 94.9798C156.97 102.56 156.82 110.6 155.14 118.17C154.33 121.81 153.15 125.42 151.4 128.71C149.65 132 147.34 134.99 144.68 137.59C139.58 142.58 133.14 146.34 126.39 148.6C120.86 150.45 114.95 151.33 109.11 151.14C103.38 150.95 97.5802 149.7 92.5302 146.91C90.9802 146.05 89.5402 145.03 88.2102 143.89C89.0702 145 89.9702 146.08 90.9302 147.09C89.6002 149.52 87.7402 151.65 85.4402 153.21C84.5902 152.59 83.4202 152.45 82.4702 152.95C81.4702 153.48 80.8502 154.54 80.9102 155.67C80.9602 156.75 81.5702 157.74 82.2502 158.55C83.1102 159.57 84.1602 160.56 85.4202 161.06C86.4702 161.47 87.7402 161.52 88.7302 160.91C89.6302 160.36 90.2302 159.25 89.9702 158.19C89.8302 157.61 89.5002 157.12 89.2402 156.59C88.9702 156.04 88.8702 155.48 89.0202 154.88C89.1702 154.28 89.4902 153.74 89.8202 153.22C90.1802 152.66 90.5802 152.13 91.0102 151.62C91.7102 150.8 92.5002 150.08 93.3402 149.41C96.3902 152.15 99.8302 154.47 103.59 156.22C103.04 159.92 101.57 163.48 99.3302 166.49C98.0202 166.09 96.5302 166.42 95.5802 167.43C94.5702 168.5 94.2702 170.07 94.8202 171.44C95.3502 172.74 96.5102 173.7 97.6902 174.4C99.1702 175.29 100.89 176.06 102.65 176.13C104.12 176.19 105.7 175.71 106.66 174.54C107.52 173.47 107.79 171.86 107.03 170.67C106.61 170.02 105.99 169.55 105.45 169.02C104.89 168.45 104.53 167.82 104.45 167.01C104.38 166.22 104.54 165.4 104.74 164.63C104.95 163.79 105.22 162.97 105.53 162.17C106.11 160.66 106.87 159.24 107.78 157.9C111.19 159.07 114.81 159.8 118.57 160.03C119.13 162.14 119.41 164.33 119.38 166.53C119.38 167.5 119.3 168.48 119.16 169.44C119.04 170.33 118.87 171.24 118.45 172.05C118.04 172.85 117.39 173.37 116.56 173.72C115.77 174.06 114.92 174.27 114.22 174.78C112.92 175.71 112.51 177.5 112.97 178.98C113.47 180.61 114.92 181.78 116.49 182.33C118.36 183 120.47 182.91 122.41 182.61C123.94 182.37 125.56 181.87 126.66 180.73C127.81 179.53 128.16 177.77 127.55 176.22C126.99 174.76 125.57 173.78 124.03 173.65C122.85 169.19 122.92 164.45 124.2 160.03C128.78 159.71 133.16 158.66 137.21 156.99C137.44 157.42 137.64 157.87 137.82 158.33C138.01 158.83 138.17 159.33 138.3 159.85C138.42 160.33 138.52 160.82 138.48 161.31C138.43 161.81 138.21 162.2 137.86 162.55C137.53 162.88 137.15 163.16 136.89 163.57C136.42 164.3 136.59 165.3 137.12 165.95C137.71 166.67 138.68 166.97 139.58 166.93C140.67 166.89 141.72 166.41 142.63 165.86C143.36 165.42 144.08 164.84 144.4 164.03C144.75 163.19 144.56 162.23 143.93 161.57C143.35 160.94 142.42 160.74 141.62 160.99C140.52 159.53 139.73 157.85 139.28 156.08C142.98 154.31 146.39 152.02 149.4 149.29C151.55 150.55 153.49 152.17 155.11 154.07C155.69 154.75 156.23 155.47 156.72 156.22C157.17 156.91 157.61 157.65 157.81 158.45C158 159.26 157.87 160.01 157.51 160.75C157.16 161.46 156.71 162.13 156.52 162.9C156.18 164.33 156.98 165.82 158.2 166.57C159.53 167.39 161.24 167.33 162.66 166.77C164.36 166.1 165.77 164.77 166.93 163.39C167.85 162.29 168.67 160.97 168.74 159.51C168.82 157.98 167.99 156.56 166.64 155.84C165.37 155.17 163.79 155.36 162.64 156.19C158.94 153.68 155.99 150.09 154.22 145.97C154.04 145.55 153.87 145.13 153.72 144.71C155.33 142.76 156.75 140.65 157.99 138.41C160.55 138.46 163.11 138.93 165.53 139.79C166.44 140.12 167.35 140.5 168.22 140.94C169.02 141.34 169.83 141.8 170.45 142.45C171.08 143.11 171.35 143.88 171.42 144.78C171.49 145.64 171.42 146.51 171.67 147.34C172.12 148.87 173.69 149.83 175.24 149.88C176.95 149.92 178.52 148.94 179.56 147.64C180.79 146.09 181.4 144.06 181.74 142.14C182.01 140.62 182.06 138.92 181.34 137.51C180.58 136.03 179.03 135.13 177.36 135.2V135.25Z" fill="#2D52D5"/>
<path d="M127.11 86.7604C127.11 90.1304 124.38 92.8704 121 92.8704C117.62 92.8704 114.89 90.1404 114.89 86.7604C114.89 83.3804 117.62 80.6504 121 80.6504C124.38 80.6504 127.11 83.3804 127.11 86.7604Z" fill="#5E7FDD"/>
<path d="M132.84 133.71C132.84 136.09 131.01 138.02 128.74 138.02C126.47 138.02 124.64 136.09 124.64 133.71C124.64 131.33 126.47 129.4 128.74 129.4C131.01 129.4 132.84 131.33 132.84 133.71Z" fill="#5E7FDD"/>
<path d="M148.24 138.021C148.24 140.401 146.41 142.331 144.14 142.331C141.87 142.331 140.04 140.401 140.04 138.021C140.04 135.641 141.87 133.711 144.14 133.711C146.41 133.711 148.24 135.641 148.24 138.021Z" fill="#5E7FDD"/>
<path d="M98.8499 93.0196C97.7299 94.2296 96.1499 94.5795 95.3199 93.8095C94.4899 93.0395 94.7299 91.4395 95.8399 90.2295C96.9599 89.0195 98.5399 88.6695 99.3699 89.4395C100.2 90.2095 99.9599 91.8096 98.8499 93.0196Z" fill="#5E7FDD"/>
<path d="M86.5001 116.761C86.1301 117.891 84.9501 118.521 83.8801 118.171C82.8001 117.821 82.2301 116.611 82.6001 115.481C82.9701 114.351 84.1501 113.721 85.2201 114.071C86.3001 114.421 86.8701 115.631 86.5001 116.761Z" fill="#5E7FDD"/>
<path d="M159.3 128.23C158.93 129.36 157.75 129.99 156.68 129.64C155.6 129.29 155.03 128.08 155.4 126.95C155.77 125.82 156.95 125.19 158.02 125.54C159.1 125.89 159.67 127.1 159.3 128.23Z" fill="#5E7FDD"/>
<path d="M106.27 149.371C105.9 150.501 104.72 151.131 103.65 150.781C102.57 150.431 102 149.221 102.37 148.091C102.74 146.961 103.92 146.331 104.99 146.681C106.07 147.031 106.64 148.241 106.27 149.371Z" fill="#5E7FDD"/>
<path d="M145.17 119.291C144.8 120.421 143.62 121.051 142.55 120.701C141.47 120.351 140.9 119.141 141.27 118.011C141.64 116.881 142.82 116.251 143.89 116.601C144.97 116.951 145.54 118.161 145.17 119.291Z" fill="#5E7FDD"/>
<path d="M130.43 149.761C130.43 152.461 126.9 154.651 122.56 154.651C118.22 154.651 114.69 152.461 114.69 149.761C114.69 147.061 118.22 144.871 122.56 144.871C126.9 144.871 130.43 147.061 130.43 149.761Z" fill="#5E7FDD"/>
<path d="M155.62 99.1106C157.53 103.831 155.78 109.001 151.71 110.651C147.64 112.301 142.78 109.811 140.87 105.081C138.96 100.361 140.71 95.1906 144.78 93.5406C148.85 91.8906 153.71 94.3806 155.62 99.1106Z" fill="#5E7FDD"/>
<path d="M104.3 129.08C105.97 133.9 103.95 138.97 99.7901 140.4C95.6401 141.84 90.92 139.09 89.25 134.28C87.59 129.46 89.6001 124.39 93.7601 122.96C97.9201 121.52 102.63 124.26 104.3 129.08Z" fill="#5E7FDD"/>
<path d="M124.19 53.8499C123.84 53.5899 123.43 53.3899 123.03 53.2499C121.08 52.5899 118.84 52.8299 117.08 53.8899C115.9 54.5999 114.65 56.2699 116.01 57.4799C116.46 57.8799 117.06 58.0699 117.65 58.1999C119.36 58.5699 121.18 58.4698 122.85 57.9298C123.41 57.7398 123.97 57.4998 124.41 57.1098C124.85 56.7198 125.18 56.1599 125.18 55.5699C125.18 54.8699 124.76 54.2898 124.19 53.8598V53.8499Z" fill="#5E7FDD"/>
<path d="M124.68 177.03C124.25 176.61 123.66 176.38 123.09 176.22C121.4 175.75 119.58 175.74 117.88 176.2C117.31 176.35 116.74 176.56 116.27 176.93C115.81 177.29 115.45 177.83 115.41 178.42C115.37 179.12 115.76 179.72 116.3 180.19C116.64 180.47 117.03 180.69 117.42 180.85C119.33 181.62 121.58 181.51 123.4 180.55C124.62 179.9 125.96 178.31 124.67 177.03H124.68Z" fill="white"/>
<path d="M167.85 74.5696C167.78 74.1396 167.63 73.7095 167.43 73.3295C166.49 71.4995 164.71 70.1196 162.71 69.6596C161.36 69.3396 159.31 69.6795 159.45 71.4895C159.49 72.0995 159.79 72.6396 160.12 73.1496C161.09 74.6096 162.47 75.7996 164.05 76.5696C164.58 76.8296 165.15 77.0396 165.74 77.0696C166.33 77.0996 166.95 76.9296 167.37 76.5096C167.86 76.0096 167.96 75.2896 167.85 74.5896V74.5696Z" fill="#5E7FDD"/>
<path d="M144.53 67.33C144.39 67.07 144.19 66.83 143.98 66.62C143.46 66.13 142.83 65.76 142.16 65.53C141.5 65.31 140.81 65.23 140.12 65.3C139.18 65.4 137.93 66.08 138.43 67.21C138.6 67.59 138.91 67.88 139.24 68.13C140.11 68.79 141.15 69.24 142.23 69.41C142.33 69.43 142.43 69.45 142.53 69.46C142.93 69.5 143.34 69.52 143.73 69.4C144.11 69.28 144.48 69.03 144.65 68.67C144.85 68.24 144.76 67.75 144.53 67.32V67.33Z" fill="#5E7FDD"/>
<path d="M177.7 92.3506C176.6 91.5106 174.58 90.9806 173.97 92.7006C173.77 93.2706 173.81 93.8906 173.91 94.4906C174.21 96.2206 174.97 97.8707 176.1 99.2107C176.48 99.6607 176.91 100.091 177.45 100.361C177.98 100.631 178.62 100.721 179.16 100.501C179.82 100.251 180.2 99.6406 180.38 98.9406C180.49 98.5206 180.52 98.0606 180.5 97.6406C180.39 95.5906 179.33 93.6006 177.69 92.3606L177.7 92.3506Z" fill="white"/>
<path d="M180.08 140.561C179.87 139.191 178.79 137.411 177.16 138.221C176.62 138.491 176.22 138.971 175.88 139.471C174.89 140.921 174.29 142.631 174.17 144.381C174.13 144.971 174.14 145.581 174.34 146.141C174.53 146.701 174.93 147.211 175.47 147.441C176.12 147.711 176.82 147.541 177.44 147.171C177.81 146.951 178.15 146.641 178.43 146.321C179.78 144.771 180.4 142.611 180.09 140.571L180.08 140.561Z" fill="white"/>
<path d="M175.69 117.981C175.25 117.151 174.16 116.241 173.29 117.121C173 117.421 172.85 117.811 172.74 118.211C172.42 119.361 172.42 120.611 172.74 121.761C172.84 122.151 172.98 122.541 173.24 122.851C173.49 123.171 173.86 123.411 174.26 123.431C174.74 123.461 175.15 123.191 175.46 122.821C175.65 122.591 175.8 122.321 175.91 122.051C176.44 120.751 176.35 119.221 175.69 117.971V117.981Z" fill="white"/>
<path d="M142.65 162.57C142.35 162.45 142 162.45 141.68 162.48C140.73 162.59 139.8 162.96 139.04 163.54C138.78 163.73 138.54 163.96 138.38 164.23C138.21 164.51 138.14 164.86 138.24 165.17C138.36 165.54 138.69 165.76 139.06 165.88C139.28 165.95 139.53 165.99 139.77 165.99C140.89 165.99 142.01 165.47 142.74 164.61C143.22 164.03 143.58 162.95 142.66 162.56L142.65 162.57Z" fill="white"/>
<path d="M165.12 158.161C164.57 158.121 164.02 158.321 163.53 158.561C162.07 159.261 160.81 160.351 159.91 161.691C159.6 162.141 159.33 162.631 159.23 163.171C159.13 163.701 159.21 164.291 159.53 164.731C159.93 165.241 160.56 165.431 161.22 165.411C161.62 165.401 162.03 165.321 162.4 165.191C164.19 164.571 165.68 163.141 166.36 161.371C166.82 160.181 166.78 158.271 165.11 158.161H165.12Z" fill="white"/>
<path d="M77.3301 76.4905C77.7401 76.9105 78.3701 77.0905 78.9601 77.0605C79.5501 77.0305 80.1201 76.8205 80.6501 76.5605C82.2301 75.8005 83.6001 74.6006 84.5801 73.1406C84.9101 72.6406 85.2101 72.0905 85.2501 71.4905C85.3901 69.6805 83.3401 69.3405 81.9901 69.6505C79.9801 70.1105 78.2101 71.5005 77.2701 73.3305C77.0801 73.7105 76.9201 74.1406 76.8501 74.5706C76.7301 75.2806 76.8301 75.9905 77.3301 76.4905Z" fill="#5E7FDD"/>
<path d="M104.58 65.3107C103.19 65.1707 101.73 65.6607 100.72 66.6307C100.51 66.8307 100.32 67.0807 100.18 67.3407C99.9401 67.7707 99.8501 68.2607 100.06 68.6907C100.23 69.0507 100.59 69.3007 100.98 69.4207C101.36 69.5407 101.78 69.5207 102.18 69.4807C103.37 69.3407 104.51 68.8706 105.47 68.1506C105.79 67.9006 106.1 67.6207 106.27 67.2307C106.77 66.1007 105.52 65.4207 104.58 65.3207V65.3107Z" fill="#5E7FDD"/>
<path d="M69.8603 100.28C70.3203 100.46 70.8503 100.38 71.2903 100.16C71.7303 99.9403 72.0903 99.5803 72.4103 99.2103C73.3503 98.0903 73.9903 96.7203 74.2303 95.2903C74.3103 94.8003 74.3503 94.2803 74.1803 93.8103C73.6803 92.3903 72.0003 92.8303 71.0803 93.5203C69.7203 94.5503 68.8403 96.2003 68.7403 97.9103C68.7203 98.2603 68.7503 98.6403 68.8403 98.9903C68.9903 99.5703 69.3103 100.07 69.8503 100.29L69.8603 100.28Z" fill="#5E7FDD"/>
<path d="M69.2301 147.441C69.7801 147.211 70.1701 146.701 70.3601 146.141C70.5501 145.581 70.5701 144.971 70.5301 144.381C70.4101 142.631 69.8101 140.911 68.8201 139.461C68.4801 138.961 68.0801 138.491 67.5401 138.221C65.9101 137.411 64.8301 139.191 64.6201 140.561C64.3001 142.591 64.9301 144.751 66.2801 146.311C66.5601 146.631 66.9001 146.931 67.2701 147.161C67.8801 147.531 68.5801 147.701 69.2301 147.431V147.441Z" fill="#5E7FDD"/>
<path d="M70.4501 123.441C70.8501 123.421 71.2201 123.171 71.4701 122.861C71.7201 122.541 71.8601 122.161 71.9701 121.771C72.2801 120.611 72.2801 119.371 71.9701 118.221C71.8601 117.821 71.7101 117.431 71.4201 117.131C70.5501 116.241 69.4601 117.151 69.0201 117.991C68.3601 119.231 68.2801 120.761 68.8001 122.071C68.9101 122.341 69.0601 122.611 69.2501 122.841C69.5601 123.221 69.9701 123.481 70.4501 123.451V123.441Z" fill="#5E7FDD"/>
<path d="M104.65 171.75C104.39 171.3 103.99 170.93 103.57 170.61C102.33 169.67 100.83 169.08 99.2803 168.9C98.7503 168.84 98.1903 168.84 97.7003 169.04C96.2103 169.67 96.7803 171.42 97.5803 172.36C98.7503 173.75 100.57 174.59 102.39 174.59C102.76 174.59 103.17 174.54 103.54 174.42C104.15 174.23 104.67 173.86 104.87 173.27C105.04 172.77 104.92 172.21 104.65 171.76V171.75Z" fill="white"/>
<path d="M87.7404 159.52C87.9904 159.2 88.0404 158.76 87.9704 158.37C87.8904 157.97 87.7004 157.61 87.4704 157.27C86.8004 156.28 85.8604 155.47 84.7804 154.95C84.4104 154.77 84.0104 154.63 83.6004 154.65C82.3604 154.73 82.3304 156.15 82.6804 157.03C83.1904 158.34 84.2904 159.4 85.6204 159.86C85.8904 159.95 86.2004 160.02 86.5004 160.02C86.9904 160.03 87.4604 159.89 87.7504 159.51L87.7404 159.52Z" fill="white"/>
<path d="M302.12 154.06C289.75 154.06 278.45 150.4 268.22 143.07C257.98 135.74 251.36 126.11 248.35 114.16H275.31C277.7 119.25 281.34 123.18 286.22 125.93C291.1 128.68 296.4 130.06 302.12 130.06C310.02 130.06 316.72 128.06 322.23 124.06C327.74 120.06 331.58 114.68 333.76 107.93H289.18V86.1101H333.76C331.78 79.3601 327.99 73.9302 322.38 69.8202C316.77 65.7202 310.01 63.6602 302.12 63.6602C296.4 63.6602 291.1 65.0402 286.22 67.7902C281.33 70.5402 277.7 74.4701 275.31 79.5602H248.35C251.36 67.6102 257.99 57.9701 268.22 50.6501C278.45 43.3201 289.75 39.6602 302.12 39.6602C318.85 39.6602 332.72 45.1701 343.74 56.1801C354.75 67.2001 360.26 80.7601 360.26 96.8601C360.26 112.96 354.75 126.53 343.74 137.54C332.72 148.55 318.85 154.06 302.12 154.06Z" fill="#2D52D5"/>
<path d="M377.56 152.191V41.5215H402.34V84.8515H446.92V41.5215H471.7V152.191H446.92V108.392H402.34V152.191H377.56Z" fill="#2D52D5"/>
<path d="M577.85 175.262V152.191H510.05V175.262H487.76V128.501H489.63C498.98 128.501 503.66 118.632 503.66 98.8815V41.5215H585.8V128.491H600.14V175.251H577.85V175.262ZM528.6 65.2215V100.911C528.6 112.241 526.73 121.431 522.99 128.501H560.87V65.2215H528.61H528.6Z" fill="#2D52D5"/>
<path d="M705.12 137.221C693.95 148.441 680.47 154.051 664.67 154.051C648.87 154.051 635.39 148.471 624.22 137.291C613.05 126.121 607.46 112.641 607.46 96.8406C607.46 81.0406 613.04 67.5606 624.22 56.3906C635.4 45.2206 648.87 39.6406 664.67 39.6406C680.47 39.6406 693.95 45.2506 705.12 56.4706C716.29 67.6906 721.88 81.1506 721.88 96.8406C721.88 112.531 716.29 125.991 705.12 137.211V137.221ZM641.84 120.231C648.13 126.781 655.74 130.051 664.67 130.051C673.6 130.051 681.19 126.781 687.43 120.231C693.66 113.681 696.78 105.891 696.78 96.8506C696.78 87.8106 693.66 80.0206 687.43 73.4706C681.2 66.9206 673.61 63.6506 664.67 63.6506C655.73 63.6506 648.12 66.9206 641.84 73.4706C635.55 80.0206 632.41 87.8106 632.41 96.8506C632.41 105.891 635.55 113.681 641.84 120.231Z" fill="#2D52D5"/>
<path d="M287.57 217.86V174.83H261.49V217.86H255.26V168.74H293.86V217.86H287.56H287.57Z" fill="#2D52D5"/>
<path d="M311.85 232.32H305.9V183.27H311.85V188.6C313.05 186.85 314.74 185.41 316.93 184.28C319.12 183.15 321.48 182.58 324.02 182.58C328.82 182.58 332.84 184.33 336.09 187.84C339.34 191.35 340.97 195.59 340.97 200.57C340.97 205.55 339.34 209.79 336.09 213.3C332.84 216.81 328.81 218.56 324.02 218.56C321.48 218.56 319.12 217.99 316.93 216.87C314.74 215.74 313.04 214.3 311.85 212.55V232.34V232.32ZM314.69 209.49C316.9 211.89 319.72 213.09 323.13 213.09C326.54 213.09 329.36 211.89 331.57 209.49C333.78 207.09 334.89 204.12 334.89 200.57C334.89 197.02 333.78 194.04 331.57 191.65C329.36 189.25 326.54 188.05 323.13 188.05C319.72 188.05 316.9 189.25 314.69 191.65C312.48 194.05 311.37 197.02 311.37 200.57C311.37 204.12 312.48 207.1 314.69 209.49Z" fill="#2D52D5"/>
<path d="M364.92 218.56C359.71 218.56 355.38 216.82 351.95 213.34C348.51 209.86 346.8 205.6 346.8 200.58C346.8 195.56 348.52 191.3 351.95 187.82C355.39 184.34 359.71 182.6 364.92 182.6C370.13 182.6 374.39 184.34 377.82 187.82C381.26 191.3 382.97 195.56 382.97 200.58C382.97 205.6 381.25 209.86 377.82 213.34C374.38 216.82 370.08 218.56 364.92 218.56ZM356.24 209.43C358.48 211.83 361.37 213.03 364.92 213.03C368.47 213.03 371.35 211.83 373.57 209.43C375.78 207.03 376.89 204.08 376.89 200.57C376.89 197.06 375.78 194.11 373.57 191.72C371.36 189.32 368.47 188.12 364.92 188.12C361.37 188.12 358.47 189.32 356.24 191.72C354 194.12 352.89 197.07 352.89 200.57C352.89 204.07 354.01 207.03 356.24 209.43Z" fill="#2D52D5"/>
<path d="M414.17 232.32H408.22V218.55H407.8C401.99 218.55 397.36 216.81 393.93 213.33C390.49 209.85 388.78 205.59 388.78 200.57C388.78 195.55 390.5 191.29 393.93 187.81C397.37 184.33 401.99 182.59 407.8 182.59H408.22V165.92H414.17V182.59H414.59C420.4 182.59 425.02 184.33 428.46 187.81C431.9 191.29 433.61 195.55 433.61 200.57C433.61 205.59 431.89 209.85 428.46 213.33C425.02 216.81 420.4 218.55 414.59 218.55H414.17V232.32ZM408.22 213.09V188.05H407.8C403.83 188.05 400.67 189.24 398.32 191.61C395.97 193.99 394.79 196.97 394.79 200.57C394.79 204.17 395.95 207.15 398.28 209.53C400.61 211.91 403.78 213.09 407.79 213.09H408.21H408.22ZM414.58 188.05H414.16V213.09H414.58C418.59 213.09 421.76 211.9 424.09 209.53C426.42 207.15 427.58 204.17 427.58 200.57C427.58 196.97 426.4 193.99 424.05 191.61C421.7 189.24 418.54 188.05 414.57 188.05H414.58Z" fill="#2D52D5"/>
<path d="M447.45 217.859H442.12V183.27H448.07V208.659L467.58 183.27H472.84V217.859H466.96V192.469L447.45 217.859Z" fill="#2D52D5"/>
</g>
<defs>
<clipPath id="clip0_2145_1422">
<rect width="722" height="232" fill="white"/>
</clipPath>
</defs>
</svg>
