<svg width="722" height="232" viewBox="0 0 722 232" fill="none" xmlns="http://www.w3.org/2000/svg">
<g clip-path="url(#clip0_2145_1325)">
<path d="M114.73 230.47C114.21 230.47 113.68 230.44 113.16 230.37C75.1199 225.71 42.4299 198.69 27.8399 159.84C22.7899 146.41 19.5599 131.22 18.2099 114.7C17.9099 111.01 17.8599 107.36 17.8199 103.83C17.6799 92.7699 17.3499 85.7799 12.5799 81.5599C10.2099 79.4599 8.45994 78.4399 7.40994 77.9399C3.92994 76.2999 1.35994 73.1899 0.399939 69.4599C-0.560061 65.7299 0.199939 61.7699 2.45994 58.6499C11.9299 45.6199 21.0599 30.7099 22.5099 25.9699C22.5499 21.9399 24.4799 18.1199 27.7799 15.6999C31.5499 12.9299 36.5299 12.4199 40.7899 14.3599C40.8699 14.3899 52.3099 19.4799 66.1899 20.5099C82.0399 21.6799 93.7999 17.3599 102.09 7.31985C103.58 4.20985 106.29 1.74985 109.71 0.619852C114.99 -1.12015 120.79 0.729853 124.11 5.18985C132.44 16.3999 144.6 21.2499 161.29 20.0199C175.17 18.9999 186.61 13.9099 186.73 13.8599C190.99 11.9499 195.97 12.4699 199.72 15.2399C203 17.6599 204.93 21.4699 204.98 25.4799C206.43 30.2299 215.56 45.1398 225.03 58.1698C227.3 61.2798 228.05 65.2499 227.1 68.9799C226.14 72.7099 223.57 75.8199 220.09 77.4599C219.04 77.9499 217.29 78.9799 214.93 81.0799C210.16 85.2999 209.83 92.2899 209.69 103.35C209.64 106.88 209.6 110.53 209.3 114.22C207.96 130.74 204.72 145.93 199.68 159.36C186.02 195.72 156.51 223.14 121.44 229.98C117.58 230.5 116.98 230.47 114.75 230.47H114.73ZM30.7699 63.2099C43.2899 75.1199 43.4899 90.8199 43.6499 103.51C43.6899 106.75 43.7299 109.81 43.9599 112.62C45.1099 126.75 47.8199 139.58 52.0199 150.76C62.6799 179.14 85.5099 199.24 112.23 204.11C112.44 204.07 112.65 204.03 112.86 204C140.55 199.96 164.55 179.37 175.48 150.27C179.68 139.09 182.39 126.25 183.54 112.13C183.77 109.32 183.81 106.26 183.85 103.02C184.01 90.3499 184.22 74.6798 196.67 62.7799C190.73 54.0399 186.76 47.2999 184.13 42.0599C178.57 43.6099 171.65 45.1099 164.08 45.7399C144.15 47.3999 127.13 42.6299 114.05 31.8799C100.89 42.9699 83.6599 47.9199 63.4299 46.2299C55.8499 45.5999 48.9099 44.0999 43.3499 42.5499C41.4299 46.2699 38.8599 50.6999 35.4499 56.0699C33.8599 58.5799 32.2599 61.0099 30.7799 63.2199L30.7699 63.2099ZM22.6099 27.7199C22.6099 27.7199 22.6099 27.7199 22.6099 27.7299C22.6099 27.7299 22.6099 27.7299 22.6099 27.7199Z" fill="white"/>
<g opacity="0.1">
<path d="M225.04 58.189C215.57 45.169 206.44 30.2491 204.99 25.4991C204.94 21.489 203.01 17.6891 199.73 15.2591C195.97 12.4891 191 11.9591 186.74 13.8791C186.63 13.9291 175.18 19.0191 161.3 20.0391C144.61 21.2691 132.45 16.4191 124.12 5.20905C121.55 1.74905 117.48 -0.12095 113.33 0.01905V32.459C113.57 32.259 113.82 32.079 114.05 31.879C127.13 42.629 144.15 47.3991 164.08 45.7391C171.65 45.1091 178.58 43.6191 184.13 42.0591C186.77 47.2991 190.73 54.039 196.67 62.779C184.21 74.679 184.01 90.349 183.85 103.019C183.81 106.259 183.77 109.319 183.54 112.129C182.39 126.259 179.68 139.089 175.48 150.269C164.61 179.209 140.82 199.719 113.32 203.929V230.389C113.79 230.439 114.26 230.479 114.73 230.479C116.96 230.479 119.11 230.449 121.65 230.049C156.72 223.209 186 195.729 199.66 159.369C204.7 145.939 207.94 130.749 209.28 114.229C209.58 110.539 209.63 106.889 209.67 103.359C209.81 92.299 210.14 85.319 214.91 81.089C217.27 78.999 219.02 77.969 220.07 77.469C223.55 75.829 226.13 72.719 227.08 68.989C228.04 65.259 227.28 61.2991 225.01 58.1791L225.04 58.189Z" fill="#006FEC"/>
</g>
<path d="M113.75 13.4102C86.8302 49.6302 35.4302 26.1402 35.4302 26.1402C36.4102 33.9702 12.9102 66.2802 12.9102 66.2802C15.8102 67.6402 18.6302 69.6902 21.1402 71.9102C33.1202 82.5102 29.9102 99.1702 31.0902 113.67C32.2402 127.84 34.9202 141.97 39.9302 155.31C52.1102 187.73 77.6702 212.62 112.78 216.91L113.75 13.4102Z" fill="#2D52D5"/>
<path d="M113.75 12.9199C140.67 49.1399 192.07 25.6499 192.07 25.6499C191.09 33.4799 214.59 65.7899 214.59 65.7899C211.69 67.1499 208.87 69.1999 206.36 71.4199C194.38 82.0199 197.59 98.6799 196.41 113.18C195.26 127.35 192.58 141.48 187.57 154.82C175.39 187.24 147.88 212.77 112.77 217.07L113.75 12.9199Z" fill="#5E7FDD"/>
<path d="M169.36 135.25C167.8 135.31 166.41 136.34 165.79 137.76C161.03 137.41 156.4 135.7 152.55 132.88C153.94 129.15 154.81 125.17 155.08 121.02C156.1 120.84 157.13 120.75 158.16 120.76C158.83 120.76 159.49 120.81 160.16 120.9C160.76 120.99 161.38 121.09 161.93 121.38C162.48 121.67 162.84 122.11 163.08 122.67C163.31 123.21 163.47 123.79 163.81 124.27C164.44 125.15 165.67 125.42 166.68 125.11C167.79 124.76 168.58 123.77 168.96 122.7C169.41 121.42 169.35 119.98 169.14 118.67C168.97 117.63 168.63 116.52 167.84 115.77C167.02 114.98 165.82 114.76 164.76 115.17C163.77 115.56 163.1 116.53 163.02 117.58C160.46 118.26 157.77 118.34 155.17 117.83C155.13 113.52 154.44 109.37 153.18 105.47C154.87 104.04 156.75 102.85 158.76 101.94C159.65 101.54 160.56 101.19 161.49 100.9C162.34 100.63 163.24 100.4 164.14 100.43C165.05 100.47 165.79 100.83 166.46 101.42C167.1 102 167.66 102.67 168.42 103.1C169.81 103.88 171.61 103.48 172.75 102.44C174.01 101.29 174.45 99.4904 174.29 97.8404C174.1 95.8704 173.12 93.9904 172.03 92.3604C171.17 91.0804 170.02 89.8204 168.51 89.3104C166.94 88.7804 165.2 89.2204 164.05 90.4104C162.97 91.5404 162.7 93.2504 163.22 94.7004C159.77 97.5904 155.56 99.5304 151.13 100.28C149.34 96.5304 147.01 93.0804 144.24 90.0504C145.26 87.4304 146.75 84.9904 148.62 82.8704C149.27 82.1404 149.96 81.4504 150.69 80.8104C151.37 80.2204 152.09 79.6404 152.93 79.3004C153.77 78.9604 154.59 78.9904 155.45 79.2604C156.27 79.5304 157.06 79.9104 157.92 79.9904C159.51 80.1304 160.99 79.0404 161.6 77.6204C162.28 76.0604 161.95 74.2304 161.13 72.7904C160.15 71.0704 158.49 69.7504 156.84 68.7204C155.53 67.9004 153.97 67.2204 152.39 67.3704C150.73 67.5204 149.33 68.6304 148.77 70.1904C148.24 71.6704 148.68 73.3304 149.76 74.4404C147.62 78.8204 144.22 82.5404 140.06 85.0704C139.82 85.2104 139.58 85.3504 139.35 85.4904C137.59 84.0804 135.71 82.8204 133.74 81.7104C132.53 81.0304 131.28 80.4104 129.99 79.8504C130.15 78.2504 130.54 76.6704 131.15 75.1904C131.41 74.5804 131.7 73.9804 132.02 73.4004C132.32 72.8704 132.66 72.3304 133.13 71.9304C133.46 71.6404 133.83 71.4804 134.23 71.4004C134.4 71.3604 134.57 71.3504 134.74 71.3404C135.33 71.3304 135.92 71.4004 136.5 71.2604C137.56 71.0004 138.27 69.9604 138.35 68.9104C138.44 67.7504 137.82 66.6504 136.97 65.9004C136.17 65.2004 135.16 64.7504 134.13 64.4504C133.85 64.3604 133.57 64.2904 133.29 64.2304C132.27 64.0004 131.11 63.9104 130.12 64.3504C129.09 64.8204 128.43 65.8504 128.41 66.9804C128.41 68.0504 129.06 69.0304 130 69.5004C129.6 72.7604 128.27 75.8804 126.2 78.4104C122.97 77.3604 119.56 76.7004 116.03 76.4704C114.77 73.6904 114.04 70.6804 113.91 67.6204C113.87 66.6504 113.88 65.6704 113.96 64.7004C114.02 63.8104 114.14 62.8804 114.51 62.0604C114.88 61.2304 115.49 60.6804 116.3 60.2804C117.07 59.9004 117.9 59.6304 118.58 59.0804C119.82 58.0904 120.12 56.2704 119.58 54.8204C118.98 53.2204 117.47 52.1404 115.88 51.6704C113.98 51.1204 111.87 51.3204 109.96 51.7304C108.45 52.0604 106.85 52.6504 105.82 53.8604C104.73 55.1204 104.49 56.9004 105.19 58.4104C105.83 59.8404 107.31 60.7304 108.86 60.7704C110.37 65.4004 110.51 70.4404 109.29 75.1604C109.16 75.6404 109.02 76.1304 108.86 76.6004C106.55 76.8504 104.29 77.2804 102.11 77.8804C100.28 75.4404 99.0902 72.5304 98.7202 69.4904C99.6602 69.0104 100.32 68.0304 100.31 66.9704C100.3 65.8404 99.6402 64.8104 98.6002 64.3404C97.6102 63.8904 96.4602 63.9904 95.4302 64.2204C94.1302 64.5204 92.7602 65.0004 91.7602 65.8904C90.9102 66.6404 90.2802 67.7404 90.3802 68.9004C90.4602 69.9504 91.1702 70.9904 92.2202 71.2504C92.8002 71.3904 93.3902 71.3104 93.9802 71.3304C94.5902 71.3404 95.1302 71.5104 95.6002 71.9104C96.0602 72.3104 96.4002 72.8504 96.7002 73.3804C97.0202 73.9604 97.3202 74.5604 97.5702 75.1704C98.0802 76.4004 98.4302 77.6904 98.6302 79.0104C94.8602 80.4204 91.3602 82.3704 88.1902 84.7404C84.2502 82.2204 81.0102 78.6304 78.9502 74.4204C80.0302 73.3104 80.4702 71.6404 79.9402 70.1704C79.3802 68.6004 77.9702 67.4904 76.3202 67.3404C74.7402 67.2004 73.1802 67.8804 71.8702 68.6904C70.2102 69.7204 68.5502 71.0404 67.5802 72.7704C66.7602 74.2104 66.4302 76.0404 67.1102 77.6004C67.7302 79.0204 69.2102 80.1104 70.8002 79.9604C71.6702 79.8804 72.4502 79.4904 73.2702 79.2304C74.1202 78.9604 74.9502 78.9304 75.7902 79.2604C76.6302 79.6004 77.3502 80.1804 78.0302 80.7704C78.7602 81.4104 79.4502 82.1104 80.1002 82.8304C81.6102 84.5404 82.8402 86.4704 83.8102 88.5304C80.6202 91.7004 77.9202 95.3604 75.8702 99.4204C73.1802 98.5904 70.6502 97.2404 68.4902 95.4304C68.9302 94.2204 68.7002 92.8104 67.8002 91.8704C66.8502 90.8704 65.4002 90.5104 64.0902 90.9504C62.8402 91.3804 61.8902 92.4204 61.1702 93.4804C60.2602 94.8304 59.4502 96.3904 59.2902 98.0304C59.1602 99.4004 59.5202 100.9 60.5702 101.86C61.5202 102.73 63.0102 103.06 64.1702 102.41C64.8002 102.05 65.2602 101.5 65.8002 101.02C66.3602 100.52 66.9702 100.22 67.7302 100.19C68.4802 100.16 69.2302 100.36 69.9402 100.58C70.7102 100.82 71.4702 101.11 72.2102 101.45C72.9802 101.8 73.7202 102.2 74.4402 102.64C72.5302 107.4 71.4602 112.59 71.4402 118.03C69.5202 118.16 67.5902 118.03 65.7302 117.53C65.6402 116.48 64.9802 115.51 63.9802 115.12C62.9202 114.71 61.7202 114.94 60.9002 115.72C60.1202 116.47 59.7702 117.58 59.6102 118.62C59.4002 119.94 59.3402 121.38 59.7902 122.65C60.1702 123.72 60.9602 124.71 62.0702 125.06C63.0802 125.38 64.3002 125.1 64.9402 124.22C65.2902 123.74 65.4402 123.16 65.6702 122.62C65.9102 122.06 66.2702 121.62 66.8202 121.33C67.3702 121.05 67.9902 120.94 68.6002 120.85C69.2602 120.76 69.9202 120.71 70.5902 120.71C70.9002 120.71 71.2102 120.74 71.5302 120.76C71.8102 125.4 72.8402 129.84 74.5102 133.96C71.0302 136.1 67.0502 137.41 62.9702 137.71C62.3402 136.3 60.9602 135.27 59.3902 135.21C57.7302 135.15 56.1702 136.04 55.4202 137.52C54.7002 138.93 54.7502 140.63 55.0202 142.16C55.3602 144.08 55.9702 146.11 57.2002 147.66C58.2402 148.96 59.8102 149.95 61.5102 149.9C63.0602 149.86 64.6202 148.89 65.0802 147.36C65.3302 146.52 65.2602 145.65 65.3202 144.8C65.3802 143.9 65.6602 143.13 66.2902 142.47C66.9102 141.82 67.7302 141.36 68.5202 140.96C69.3902 140.52 70.2902 140.14 71.2102 139.81C72.9902 139.17 74.8402 138.77 76.7102 138.57C78.4302 141.67 80.5402 144.52 82.9602 147.08C81.6302 149.51 79.7702 151.64 77.4702 153.2C76.6202 152.58 75.4502 152.44 74.5002 152.94C73.5002 153.47 72.8802 154.53 72.9402 155.66C72.9902 156.74 73.6002 157.73 74.2802 158.54C75.1402 159.56 76.1902 160.55 77.4502 161.05C78.5002 161.46 79.7702 161.51 80.7602 160.9C81.6602 160.35 82.2602 159.24 82.0002 158.18C81.8602 157.6 81.5302 157.11 81.2702 156.58C81.0002 156.03 80.9002 155.47 81.0502 154.87C81.2002 154.27 81.5202 153.73 81.8502 153.21C82.2102 152.65 82.6102 152.12 83.0402 151.61C83.7402 150.79 84.5302 150.07 85.3702 149.4C88.4202 152.14 91.8602 154.46 95.6202 156.21C95.0702 159.91 93.6002 163.47 91.3602 166.48C90.0502 166.08 88.5602 166.41 87.6102 167.42C86.6002 168.49 86.3002 170.06 86.8502 171.43C87.3802 172.73 88.5402 173.69 89.7202 174.39C91.2002 175.28 92.9202 176.05 94.6802 176.12C96.1502 176.18 97.7302 175.7 98.6902 174.53C99.5502 173.46 99.8202 171.85 99.0602 170.66C98.6402 170.01 98.0202 169.54 97.4802 169.01C96.9202 168.44 96.5602 167.81 96.4802 167C96.4102 166.21 96.5702 165.39 96.7702 164.62C96.9802 163.78 97.2502 162.96 97.5602 162.16C98.1402 160.65 98.9002 159.23 99.8102 157.89C103.22 159.06 106.84 159.79 110.6 160.02C111.16 162.13 111.44 164.32 111.41 166.52C111.41 167.49 111.33 168.47 111.19 169.43C111.07 170.32 110.9 171.23 110.48 172.04C110.07 172.84 109.42 173.36 108.59 173.71C107.8 174.05 106.95 174.26 106.25 174.77C104.95 175.7 104.54 177.49 105 178.97C105.5 180.6 106.95 181.77 108.52 182.32C110.39 182.99 112.5 182.9 114.44 182.6C115.97 182.36 117.59 181.86 118.69 180.72C119.84 179.52 120.19 177.76 119.58 176.21C119.02 174.75 117.6 173.77 116.06 173.64C114.88 169.18 114.95 164.44 116.23 160.02C120.81 159.7 125.19 158.65 129.24 156.98C129.47 157.41 129.67 157.86 129.85 158.32C130.04 158.82 130.2 159.32 130.33 159.84C130.45 160.32 130.55 160.81 130.51 161.3C130.46 161.8 130.24 162.19 129.89 162.54C129.56 162.87 129.18 163.15 128.92 163.56C128.45 164.29 128.62 165.29 129.15 165.94C129.74 166.66 130.71 166.96 131.61 166.92C132.7 166.88 133.75 166.4 134.66 165.85C135.39 165.41 136.11 164.83 136.43 164.02C136.78 163.18 136.59 162.22 135.96 161.56C135.38 160.93 134.45 160.73 133.65 160.98C132.55 159.52 131.76 157.84 131.31 156.07C135.01 154.3 138.42 152.01 141.43 149.28C143.58 150.54 145.52 152.16 147.14 154.06C147.72 154.74 148.26 155.46 148.75 156.21C149.2 156.9 149.64 157.64 149.84 158.44C150.03 159.25 149.9 160 149.54 160.74C149.19 161.45 148.74 162.12 148.55 162.89C148.21 164.32 149.01 165.81 150.23 166.56C151.56 167.38 153.27 167.32 154.69 166.76C156.39 166.09 157.8 164.76 158.96 163.38C159.88 162.28 160.7 160.96 160.77 159.5C160.85 157.97 160.02 156.55 158.67 155.83C157.4 155.16 155.82 155.35 154.67 156.18C150.97 153.67 148.02 150.08 146.25 145.96C146.07 145.54 145.9 145.12 145.75 144.7C147.36 142.75 148.78 140.64 150.02 138.4C152.58 138.45 155.14 138.92 157.56 139.78C158.47 140.11 159.38 140.49 160.25 140.93C161.05 141.33 161.86 141.79 162.48 142.44C163.11 143.1 163.38 143.87 163.45 144.77C163.52 145.63 163.45 146.5 163.7 147.33C164.15 148.86 165.72 149.82 167.27 149.87C168.98 149.91 170.55 148.93 171.59 147.63C172.82 146.08 173.43 144.05 173.77 142.13C174.04 140.61 174.09 138.91 173.37 137.5C172.61 136.02 171.06 135.12 169.39 135.19L169.36 135.25Z" fill="white"/>
<path d="M169.36 135.25C167.8 135.31 166.41 136.34 165.79 137.76C161.03 137.41 156.4 135.7 152.56 132.88C153.95 129.15 154.82 125.17 155.09 121.02C156.11 120.84 157.14 120.75 158.17 120.76C158.84 120.76 159.5 120.81 160.17 120.9C160.77 120.99 161.39 121.09 161.94 121.38C162.49 121.67 162.85 122.11 163.09 122.67C163.32 123.21 163.48 123.79 163.82 124.27C164.45 125.15 165.68 125.42 166.69 125.11C167.8 124.76 168.59 123.77 168.97 122.7C169.42 121.42 169.36 119.98 169.15 118.67C168.98 117.63 168.64 116.52 167.85 115.77C167.03 114.98 165.83 114.76 164.77 115.17C163.78 115.56 163.11 116.53 163.03 117.58C160.47 118.26 157.78 118.34 155.18 117.83C155.14 113.52 154.45 109.37 153.19 105.47C154.88 104.04 156.76 102.85 158.77 101.94C159.66 101.54 160.57 101.19 161.5 100.9C162.35 100.63 163.25 100.4 164.15 100.43C165.06 100.47 165.8 100.83 166.47 101.42C167.11 102 167.67 102.67 168.43 103.1C169.82 103.88 171.62 103.48 172.76 102.44C174.02 101.29 174.46 99.4898 174.3 97.8398C174.11 95.8698 173.13 93.9898 172.04 92.3598C171.18 91.0798 170.03 89.8198 168.52 89.3098C166.95 88.7798 165.21 89.2198 164.06 90.4098C162.98 91.5398 162.71 93.2498 163.23 94.6998C159.78 97.5898 155.57 99.5298 151.14 100.28C149.95 97.7798 148.5 95.4398 146.86 93.2398C147.02 93.8198 147.17 94.3898 147.3 94.9798C148.97 102.56 148.82 110.6 147.14 118.17C146.33 121.81 145.15 125.42 143.4 128.71C141.65 132 139.34 134.99 136.68 137.59C131.58 142.58 125.14 146.34 118.39 148.6C112.86 150.45 106.95 151.33 101.11 151.14C95.3802 150.95 89.5802 149.7 84.5302 146.91C82.9802 146.05 81.5402 145.03 80.2102 143.89C81.0702 145 81.9702 146.08 82.9302 147.09C81.6002 149.52 79.7402 151.65 77.4402 153.21C76.5902 152.59 75.4202 152.45 74.4702 152.95C73.4702 153.48 72.8502 154.54 72.9102 155.67C72.9602 156.75 73.5702 157.74 74.2502 158.55C75.1102 159.57 76.1602 160.56 77.4202 161.06C78.4702 161.47 79.7402 161.52 80.7302 160.91C81.6302 160.36 82.2302 159.25 81.9702 158.19C81.8302 157.61 81.5002 157.12 81.2402 156.59C80.9702 156.04 80.8702 155.48 81.0202 154.88C81.1702 154.28 81.4902 153.74 81.8202 153.22C82.1802 152.66 82.5802 152.13 83.0102 151.62C83.7102 150.8 84.5002 150.08 85.3402 149.41C88.3902 152.15 91.8302 154.47 95.5902 156.22C95.0402 159.92 93.5702 163.48 91.3302 166.49C90.0202 166.09 88.5302 166.42 87.5802 167.43C86.5702 168.5 86.2702 170.07 86.8202 171.44C87.3502 172.74 88.5102 173.7 89.6902 174.4C91.1702 175.29 92.8902 176.06 94.6502 176.13C96.1202 176.19 97.7002 175.71 98.6602 174.54C99.5202 173.47 99.7902 171.86 99.0302 170.67C98.6102 170.02 97.9902 169.55 97.4502 169.02C96.8902 168.45 96.5302 167.82 96.4502 167.01C96.3802 166.22 96.5402 165.4 96.7402 164.63C96.9502 163.79 97.2202 162.97 97.5302 162.17C98.1102 160.66 98.8702 159.24 99.7802 157.9C103.19 159.07 106.81 159.8 110.57 160.03C111.13 162.14 111.41 164.33 111.38 166.53C111.38 167.5 111.3 168.48 111.16 169.44C111.04 170.33 110.87 171.24 110.45 172.05C110.04 172.85 109.39 173.37 108.56 173.72C107.77 174.06 106.92 174.27 106.22 174.78C104.92 175.71 104.51 177.5 104.97 178.98C105.47 180.61 106.92 181.78 108.49 182.33C110.36 183 112.47 182.91 114.41 182.61C115.94 182.37 117.56 181.87 118.66 180.73C119.81 179.53 120.16 177.77 119.55 176.22C118.99 174.76 117.57 173.78 116.03 173.65C114.85 169.19 114.92 164.45 116.2 160.03C120.78 159.71 125.16 158.66 129.21 156.99C129.44 157.42 129.64 157.87 129.82 158.33C130.01 158.83 130.17 159.33 130.3 159.85C130.42 160.33 130.52 160.82 130.48 161.31C130.43 161.81 130.21 162.2 129.86 162.55C129.53 162.88 129.15 163.16 128.89 163.57C128.42 164.3 128.59 165.3 129.12 165.96C129.71 166.68 130.68 166.98 131.58 166.94C132.67 166.9 133.72 166.42 134.63 165.87C135.36 165.43 136.08 164.85 136.4 164.04C136.75 163.2 136.56 162.24 135.93 161.58C135.35 160.95 134.42 160.75 133.62 161C132.52 159.54 131.73 157.86 131.28 156.09C134.98 154.32 138.39 152.03 141.4 149.3C143.55 150.56 145.49 152.18 147.11 154.08C147.69 154.76 148.23 155.48 148.72 156.23C149.17 156.92 149.61 157.66 149.81 158.46C150 159.27 149.87 160.02 149.51 160.76C149.16 161.47 148.71 162.14 148.52 162.91C148.18 164.34 148.98 165.83 150.2 166.58C151.53 167.4 153.24 167.34 154.66 166.78C156.36 166.11 157.77 164.78 158.93 163.4C159.85 162.3 160.67 160.98 160.74 159.52C160.82 157.99 159.99 156.57 158.64 155.85C157.37 155.18 155.79 155.37 154.64 156.2C150.94 153.69 147.99 150.1 146.22 145.98C146.04 145.56 145.87 145.14 145.72 144.72C147.33 142.77 148.75 140.66 149.99 138.42C152.55 138.47 155.11 138.94 157.53 139.8C158.44 140.13 159.35 140.51 160.22 140.95C161.02 141.35 161.83 141.81 162.45 142.46C163.08 143.12 163.35 143.89 163.42 144.79C163.49 145.65 163.42 146.52 163.67 147.35C164.12 148.88 165.69 149.84 167.24 149.89C168.95 149.93 170.52 148.95 171.56 147.65C172.79 146.1 173.4 144.07 173.74 142.15C174.01 140.63 174.06 138.93 173.34 137.52C172.58 136.04 171.03 135.14 169.36 135.21V135.25Z" fill="#2D52D5"/>
<path d="M119.11 86.7604C119.11 90.1304 116.38 92.8704 113 92.8704C109.62 92.8704 106.89 90.1404 106.89 86.7604C106.89 83.3804 109.62 80.6504 113 80.6504C116.38 80.6504 119.11 83.3804 119.11 86.7604Z" fill="#5E7FDD"/>
<path d="M124.84 133.71C124.84 136.09 123.01 138.02 120.74 138.02C118.47 138.02 116.64 136.09 116.64 133.71C116.64 131.33 118.47 129.4 120.74 129.4C123.01 129.4 124.84 131.33 124.84 133.71Z" fill="#5E7FDD"/>
<path d="M140.24 138.021C140.24 140.401 138.41 142.331 136.14 142.331C133.87 142.331 132.04 140.401 132.04 138.021C132.04 135.641 133.87 133.711 136.14 133.711C138.41 133.711 140.24 135.641 140.24 138.021Z" fill="#5E7FDD"/>
<path d="M90.8499 93.0195C89.7299 94.2295 88.1499 94.5795 87.3199 93.8095C86.4899 93.0395 86.7299 91.4395 87.8399 90.2295C88.9599 89.0195 90.5399 88.6695 91.3699 89.4395C92.1999 90.2095 91.9599 91.8095 90.8499 93.0195Z" fill="#5E7FDD"/>
<path d="M78.5001 116.761C78.1301 117.891 76.9501 118.521 75.8801 118.171C74.8001 117.821 74.2301 116.611 74.6001 115.481C74.9701 114.351 76.1501 113.721 77.2201 114.071C78.3001 114.421 78.8701 115.631 78.5001 116.761Z" fill="#5E7FDD"/>
<path d="M151.3 128.23C150.93 129.36 149.75 129.99 148.68 129.64C147.6 129.29 147.03 128.08 147.4 126.95C147.77 125.82 148.95 125.19 150.02 125.54C151.1 125.89 151.67 127.1 151.3 128.23Z" fill="#5E7FDD"/>
<path d="M98.2701 149.371C97.9001 150.501 96.7201 151.131 95.6501 150.781C94.5701 150.431 94.0001 149.221 94.3701 148.091C94.7401 146.961 95.9201 146.331 96.9901 146.681C98.0701 147.031 98.6401 148.241 98.2701 149.371Z" fill="#5E7FDD"/>
<path d="M137.17 119.291C136.8 120.421 135.62 121.051 134.55 120.701C133.47 120.351 132.9 119.141 133.27 118.011C133.64 116.881 134.82 116.251 135.89 116.601C136.97 116.951 137.54 118.161 137.17 119.291Z" fill="#5E7FDD"/>
<path d="M122.43 149.761C122.43 152.461 118.9 154.651 114.56 154.651C110.22 154.651 106.69 152.461 106.69 149.761C106.69 147.061 110.22 144.871 114.56 144.871C118.9 144.871 122.43 147.061 122.43 149.761Z" fill="#5E7FDD"/>
<path d="M147.62 99.1106C149.53 103.831 147.78 109.001 143.71 110.651C139.64 112.301 134.78 109.811 132.87 105.081C130.96 100.361 132.71 95.1906 136.78 93.5406C140.85 91.8906 145.71 94.3806 147.62 99.1106Z" fill="#5E7FDD"/>
<path d="M96.3001 129.08C97.9701 133.9 95.9501 138.97 91.7901 140.4C87.6401 141.84 82.92 139.09 81.25 134.28C79.59 129.46 81.6001 124.39 85.7601 122.96C89.9201 121.52 94.6301 124.26 96.3001 129.08Z" fill="#5E7FDD"/>
<path d="M116.19 53.8499C115.84 53.5899 115.43 53.3899 115.03 53.2499C113.08 52.5899 110.84 52.8299 109.08 53.8899C107.9 54.5999 106.65 56.2699 108.01 57.4799C108.46 57.8799 109.06 58.0699 109.65 58.1999C111.36 58.5699 113.18 58.4699 114.85 57.9299C115.41 57.7399 115.97 57.4999 116.41 57.1099C116.85 56.7199 117.18 56.1599 117.18 55.5699C117.18 54.8699 116.76 54.2899 116.19 53.8599V53.8499Z" fill="#5E7FDD"/>
<path d="M116.68 177.03C116.25 176.61 115.66 176.38 115.09 176.22C113.4 175.75 111.58 175.74 109.88 176.2C109.31 176.35 108.74 176.56 108.27 176.93C107.81 177.29 107.45 177.83 107.41 178.42C107.37 179.12 107.76 179.72 108.3 180.19C108.64 180.47 109.03 180.69 109.42 180.85C111.33 181.62 113.58 181.51 115.4 180.55C116.62 179.9 117.96 178.31 116.67 177.03H116.68Z" fill="white"/>
<path d="M159.85 74.5696C159.78 74.1396 159.63 73.7096 159.43 73.3296C158.49 71.4996 156.71 70.1196 154.71 69.6596C153.36 69.3396 151.31 69.6796 151.45 71.4896C151.49 72.0996 151.79 72.6396 152.12 73.1496C153.09 74.6096 154.47 75.7996 156.05 76.5696C156.58 76.8296 157.15 77.0396 157.74 77.0696C158.33 77.0996 158.95 76.9296 159.37 76.5096C159.86 76.0096 159.96 75.2896 159.85 74.5896V74.5696Z" fill="#5E7FDD"/>
<path d="M136.53 67.33C136.39 67.07 136.19 66.83 135.98 66.62C135.46 66.13 134.83 65.76 134.16 65.53C133.5 65.31 132.81 65.23 132.12 65.3C131.18 65.4 129.93 66.08 130.43 67.21C130.6 67.59 130.91 67.88 131.24 68.13C132.11 68.79 133.15 69.24 134.23 69.41C134.33 69.43 134.43 69.45 134.53 69.46C134.93 69.5 135.34 69.52 135.73 69.4C136.11 69.28 136.48 69.03 136.65 68.67C136.85 68.24 136.76 67.75 136.53 67.32V67.33Z" fill="#5E7FDD"/>
<path d="M169.7 92.3506C168.6 91.5106 166.58 90.9806 165.97 92.7006C165.77 93.2706 165.81 93.8906 165.91 94.4906C166.21 96.2206 166.97 97.8706 168.1 99.2106C168.48 99.6606 168.91 100.091 169.45 100.361C169.98 100.631 170.62 100.721 171.16 100.501C171.82 100.251 172.2 99.6406 172.38 98.9406C172.49 98.5206 172.52 98.0606 172.5 97.6406C172.39 95.5906 171.33 93.6006 169.69 92.3606L169.7 92.3506Z" fill="white"/>
<path d="M172.08 140.561C171.87 139.191 170.79 137.411 169.16 138.221C168.62 138.491 168.22 138.971 167.88 139.471C166.89 140.921 166.29 142.631 166.17 144.381C166.13 144.971 166.14 145.581 166.34 146.141C166.53 146.701 166.93 147.211 167.47 147.441C168.12 147.711 168.82 147.541 169.44 147.171C169.81 146.951 170.15 146.641 170.43 146.321C171.78 144.771 172.4 142.611 172.09 140.571L172.08 140.561Z" fill="white"/>
<path d="M167.69 117.981C167.25 117.151 166.16 116.241 165.29 117.121C165 117.421 164.85 117.811 164.74 118.211C164.42 119.361 164.42 120.611 164.74 121.761C164.84 122.151 164.98 122.541 165.24 122.851C165.49 123.171 165.86 123.411 166.26 123.431C166.74 123.461 167.15 123.191 167.46 122.821C167.65 122.591 167.8 122.321 167.91 122.051C168.44 120.751 168.35 119.221 167.69 117.971V117.981Z" fill="white"/>
<path d="M134.65 162.57C134.35 162.45 134 162.45 133.68 162.48C132.73 162.59 131.8 162.96 131.04 163.54C130.78 163.73 130.54 163.96 130.38 164.23C130.21 164.51 130.14 164.86 130.24 165.17C130.36 165.54 130.69 165.76 131.06 165.88C131.28 165.95 131.53 165.99 131.77 165.99C132.89 165.99 134.01 165.47 134.74 164.61C135.22 164.03 135.58 162.95 134.66 162.56L134.65 162.57Z" fill="white"/>
<path d="M157.12 158.161C156.57 158.121 156.02 158.321 155.53 158.561C154.07 159.261 152.81 160.351 151.91 161.691C151.6 162.141 151.33 162.631 151.23 163.171C151.13 163.701 151.21 164.291 151.53 164.731C151.93 165.241 152.56 165.431 153.22 165.411C153.62 165.401 154.03 165.321 154.4 165.191C156.19 164.571 157.68 163.141 158.36 161.371C158.82 160.181 158.78 158.271 157.11 158.161H157.12Z" fill="white"/>
<path d="M69.3301 76.4905C69.7401 76.9105 70.3701 77.0905 70.9601 77.0605C71.5501 77.0305 72.1201 76.8205 72.6501 76.5605C74.2301 75.8005 75.6001 74.6005 76.5801 73.1405C76.9101 72.6405 77.2101 72.0905 77.2501 71.4905C77.3901 69.6805 75.3401 69.3405 73.9901 69.6505C71.9801 70.1105 70.2101 71.5005 69.2701 73.3305C69.0801 73.7105 68.9201 74.1405 68.8501 74.5705C68.7301 75.2805 68.8301 75.9905 69.3301 76.4905Z" fill="#5E7FDD"/>
<path d="M96.5801 65.3107C95.1901 65.1707 93.7301 65.6607 92.7201 66.6307C92.5101 66.8307 92.3201 67.0807 92.1801 67.3407C91.9401 67.7707 91.8501 68.2507 92.0601 68.6907C92.2301 69.0507 92.5901 69.3007 92.9801 69.4207C93.3601 69.5407 93.7801 69.5207 94.1801 69.4807C95.3701 69.3407 96.5101 68.8707 97.4701 68.1507C97.7901 67.9107 98.1001 67.6207 98.2701 67.2307C98.7701 66.1007 97.5201 65.4207 96.5801 65.3207V65.3107Z" fill="#5E7FDD"/>
<path d="M61.8603 100.28C62.3203 100.46 62.8503 100.38 63.2903 100.16C63.7303 99.9403 64.0903 99.5803 64.4103 99.2103C65.3503 98.1003 65.9903 96.7203 66.2303 95.2903C66.3103 94.8003 66.3503 94.2803 66.1803 93.8103C65.6803 92.3903 64.0003 92.8303 63.0803 93.5203C61.7203 94.5503 60.8403 96.2003 60.7403 97.9103C60.7203 98.2603 60.7503 98.6403 60.8403 98.9903C60.9903 99.5703 61.3103 100.07 61.8503 100.29L61.8603 100.28Z" fill="#5E7FDD"/>
<path d="M61.2301 147.441C61.7801 147.211 62.1701 146.701 62.3601 146.141C62.5501 145.581 62.5701 144.971 62.5301 144.381C62.4101 142.631 61.8101 140.911 60.8201 139.461C60.4801 138.961 60.0801 138.491 59.5401 138.221C57.9101 137.411 56.8301 139.191 56.6201 140.561C56.3001 142.591 56.9301 144.751 58.2801 146.311C58.5601 146.631 58.9001 146.931 59.2701 147.161C59.8801 147.531 60.5801 147.701 61.2301 147.431V147.441Z" fill="#5E7FDD"/>
<path d="M62.4501 123.441C62.8501 123.421 63.2201 123.171 63.4701 122.861C63.7201 122.541 63.8601 122.161 63.9701 121.771C64.2801 120.611 64.2801 119.371 63.9701 118.221C63.8601 117.821 63.7101 117.431 63.4201 117.131C62.5501 116.241 61.4601 117.151 61.0201 117.991C60.3601 119.231 60.2801 120.761 60.8001 122.071C60.9101 122.341 61.0601 122.611 61.2501 122.841C61.5601 123.221 61.9701 123.481 62.4501 123.451V123.441Z" fill="#5E7FDD"/>
<path d="M96.6503 171.75C96.3903 171.3 95.9903 170.93 95.5703 170.61C94.3303 169.67 92.8303 169.08 91.2803 168.9C90.7503 168.84 90.1903 168.84 89.7003 169.04C88.2103 169.67 88.7803 171.42 89.5803 172.36C90.7503 173.75 92.5703 174.59 94.3903 174.59C94.7603 174.59 95.1703 174.54 95.5403 174.42C96.1503 174.23 96.6703 173.86 96.8703 173.27C97.0403 172.77 96.9203 172.21 96.6503 171.76V171.75Z" fill="white"/>
<path d="M79.7404 159.52C79.9904 159.2 80.0404 158.76 79.9704 158.37C79.8904 157.97 79.7004 157.61 79.4704 157.27C78.8004 156.28 77.8604 155.47 76.7804 154.95C76.4104 154.77 76.0104 154.63 75.6004 154.65C74.3604 154.73 74.3304 156.15 74.6804 157.03C75.1904 158.34 76.2904 159.4 77.6204 159.86C77.8904 159.95 78.2004 160.02 78.5004 160.02C78.9904 160.03 79.4604 159.89 79.7504 159.51L79.7404 159.52Z" fill="white"/>
<path d="M294.12 154.06C281.75 154.06 270.45 150.4 260.22 143.07C249.98 135.74 243.36 126.11 240.35 114.16H267.31C269.7 119.25 273.34 123.18 278.22 125.93C283.1 128.68 288.4 130.06 294.12 130.06C302.02 130.06 308.72 128.06 314.23 124.06C319.74 120.06 323.58 114.68 325.76 107.93H281.18V86.1102H325.76C323.78 79.3602 319.99 73.9302 314.38 69.8202C308.77 65.7202 302.01 63.6602 294.12 63.6602C288.4 63.6602 283.1 65.0402 278.22 67.7902C273.33 70.5402 269.7 74.4702 267.31 79.5602H240.35C243.36 67.6102 249.99 57.9702 260.22 50.6502C270.45 43.3202 281.75 39.6602 294.12 39.6602C310.85 39.6602 324.72 45.1702 335.74 56.1802C346.75 67.2002 352.26 80.7602 352.26 96.8602C352.26 112.96 346.75 126.53 335.74 137.54C324.72 148.56 310.85 154.06 294.12 154.06Z" fill="white"/>
<path d="M369.56 152.191V41.5215H394.34V84.8515H438.92V41.5215H463.7V152.191H438.92V108.391H394.34V152.191H369.56Z" fill="white"/>
<path d="M569.85 175.261V152.191H502.05V175.261H479.76V128.501H481.63C490.98 128.501 495.66 118.631 495.66 98.8913V41.5312H577.8V128.501H592.14V175.261H569.85ZM520.6 65.2213V100.911C520.6 112.241 518.73 121.431 514.99 128.501H552.87V65.2213H520.61H520.6Z" fill="white"/>
<path d="M697.12 137.221C685.95 148.441 672.47 154.051 656.67 154.051C640.87 154.051 627.39 148.471 616.22 137.291C605.05 126.121 599.46 112.641 599.46 96.8409C599.46 81.0409 605.04 67.5609 616.22 56.3909C627.39 45.2209 640.87 39.6309 656.67 39.6309C672.47 39.6309 685.95 45.2409 697.12 56.4609C708.29 67.6809 713.88 81.1409 713.88 96.8309C713.88 112.521 708.29 125.981 697.12 137.201V137.221ZM633.84 120.231C640.13 126.781 647.74 130.051 656.67 130.051C665.6 130.051 673.19 126.781 679.43 120.231C685.66 113.681 688.78 105.891 688.78 96.8509C688.78 87.8109 685.66 80.0209 679.43 73.4709C673.2 66.9209 665.61 63.6509 656.67 63.6509C647.73 63.6509 640.12 66.9209 633.84 73.4709C627.55 80.0209 624.41 87.8109 624.41 96.8509C624.41 105.891 627.55 113.681 633.84 120.231Z" fill="white"/>
<path d="M279.57 217.87V174.84H253.49V217.87H247.26V168.75H285.86V217.87H279.56H279.57Z" fill="white"/>
<path d="M303.85 232.32H297.9V183.27H303.85V188.6C305.05 186.85 306.74 185.41 308.93 184.28C311.12 183.15 313.48 182.59 316.02 182.59C320.82 182.59 324.84 184.34 328.09 187.85C331.34 191.36 332.97 195.6 332.97 200.58C332.97 205.56 331.34 209.8 328.09 213.31C324.84 216.82 320.81 218.57 316.02 218.57C313.48 218.57 311.12 218 308.93 216.88C306.74 215.75 305.04 214.31 303.85 212.56V232.35V232.32ZM306.69 209.49C308.9 211.89 311.72 213.09 315.13 213.09C318.54 213.09 321.36 211.89 323.57 209.49C325.78 207.09 326.89 204.12 326.89 200.57C326.89 197.02 325.78 194.04 323.57 191.65C321.36 189.25 318.54 188.05 315.13 188.05C311.72 188.05 308.9 189.25 306.69 191.65C304.48 194.05 303.37 197.02 303.37 200.57C303.37 204.12 304.48 207.1 306.69 209.49Z" fill="white"/>
<path d="M356.92 218.56C351.71 218.56 347.38 216.82 343.95 213.34C340.51 209.86 338.8 205.6 338.8 200.58C338.8 195.56 340.52 191.3 343.95 187.82C347.39 184.34 351.71 182.6 356.92 182.6C362.13 182.6 366.39 184.34 369.82 187.82C373.26 191.3 374.97 195.56 374.97 200.58C374.97 205.6 373.25 209.86 369.82 213.34C366.38 216.82 362.08 218.56 356.92 218.56ZM348.24 209.43C350.48 211.83 353.37 213.03 356.92 213.03C360.47 213.03 363.35 211.83 365.57 209.43C367.78 207.03 368.89 204.08 368.89 200.58C368.89 197.08 367.78 194.12 365.57 191.73C363.36 189.33 360.47 188.13 356.92 188.13C353.37 188.13 350.47 189.33 348.24 191.73C346 194.13 344.89 197.08 344.89 200.58C344.89 204.08 346.01 207.04 348.24 209.43Z" fill="white"/>
<path d="M406.17 232.32H400.22V218.55H399.8C393.99 218.55 389.36 216.81 385.93 213.33C382.49 209.85 380.78 205.59 380.78 200.57C380.78 195.55 382.5 191.29 385.93 187.81C389.37 184.33 393.99 182.59 399.8 182.59H400.22V165.92H406.17V182.59H406.59C412.4 182.59 417.02 184.33 420.46 187.81C423.9 191.29 425.61 195.55 425.61 200.57C425.61 205.59 423.89 209.85 420.46 213.33C417.02 216.81 412.4 218.55 406.59 218.55H406.17V232.32ZM400.22 213.09V188.05H399.8C395.83 188.05 392.67 189.24 390.32 191.61C387.97 193.99 386.79 196.97 386.79 200.57C386.79 204.17 387.95 207.15 390.28 209.53C392.61 211.91 395.78 213.09 399.79 213.09H400.21H400.22ZM406.58 188.05H406.16V213.09H406.58C410.59 213.09 413.76 211.9 416.09 209.53C418.42 207.15 419.58 204.17 419.58 200.57C419.58 196.97 418.4 193.99 416.05 191.61C413.7 189.24 410.54 188.05 406.57 188.05H406.58Z" fill="white"/>
<path d="M439.45 217.869H434.12V183.279H440.07V208.669L459.58 183.279H464.84V217.869H458.96V192.479L439.45 217.869Z" fill="white"/>
</g>
<defs>
<clipPath id="clip0_2145_1325">
<rect width="722" height="232" fill="white"/>
</clipPath>
</defs>
</svg>
